<?xml version="1.0" encoding="utf-8"?>
<svg width="20px" height="20px" viewBox="0 0 20 20" version="1.1" xmlns:xlink="http://www.w3.org/1999/xlink" xmlns="http://www.w3.org/2000/svg">
  <desc>Created with Lunacy</desc>
  <path d="M18.3333 8.33333L11.6667 8.33333L11.6667 1.66667C11.6667 0.746192 10.9205 5.63628e-17 10 0C9.07952 -5.63628e-17 8.33333 0.746192 8.33333 1.66667L8.33333 8.33333L1.66667 8.33333C0.746192 8.33333 1.12726e-16 9.07952 0 10C-1.12726e-16 10.9205 0.746192 11.6667 1.66667 11.6667L8.33333 11.6667L8.33333 18.3333C8.33333 19.2538 9.07952 20 10 20C10.9205 20 11.6667 19.2538 11.6667 18.3333L11.6667 11.6667L18.3333 11.6667C19.2538 11.6667 20 10.9205 20 10C20 9.07952 19.2538 8.33333 18.3333 8.33333Z" id="Icon" fill="#FFFFFF" fill-opacity="0.7" stroke="none" />
</svg>